<svg class="fill-white w100 h100" enable-background="new 0 0 512.016 512.016" height="512" viewBox="0 0 512.016 512.016" width="512" xmlns="http://www.w3.org/2000/svg"><g><path d="m308.508 382.514v-115.91c9.35-6.819 15-17.604 15-29.09v-37.736c50.271-3.842 90-45.976 90-97.214 0-4.143-3.357-7.5-7.5-7.5s-7.5 3.357-7.5 7.5c0 43.338-33.598 78.953-76.111 82.229-3.346-11.415-13.906-19.778-26.389-19.778h-80c-12.482 0-23.042 8.363-26.389 19.778-42.513-3.275-76.111-38.89-76.111-82.229 0-4.143-3.357-7.5-7.5-7.5s-7.5 3.357-7.5 7.5c0 51.239 39.729 93.372 90 97.214v37.736c0 11.486 5.65 22.27 15 29.09v115.91c0 9.777 6.271 18.114 15 21.21v85.385l-24.872 8.29c-3.93 1.31-6.053 5.558-4.743 9.487 1.048 3.143 3.974 5.13 7.114 5.13.786 0 1.586-.125 2.373-.387l30-10c3.063-1.021 5.128-3.887 5.128-7.115v-90.79c8.729-3.096 15-11.433 15-21.21v-38.035c4.949.713 10.051.713 15 0v38.035c0 9.777 6.271 18.114 15 21.21v90.79c0 3.229 2.065 6.095 5.128 7.115l30 10c.787.262 1.587.387 2.373.387 3.14 0 6.066-1.987 7.114-5.13 1.31-3.93-.813-8.178-4.743-9.487l-24.872-8.29v-85.385c8.729-3.096 15-11.433 15-21.21zm-105-145v-45c0-6.893 5.607-12.5 12.5-12.5h80c6.893 0 12.5 5.607 12.5 12.5v45c0 7.55-4.272 14.618-11.148 18.447-2.378 1.324-3.852 3.832-3.852 6.553v22.5h-75v-22.5c0-2.721-1.474-5.229-3.852-6.553-6.876-3.829-11.148-10.897-11.148-18.447zm71.83 91.305c-1.283-.907-2.8-1.376-4.331-1.376-.84 0-1.686.142-2.499.429-8.039 2.842-16.961 2.842-25 0-2.296-.81-4.843-.457-6.83.947-1.988 1.406-3.17 3.689-3.17 6.124v47.57c0 4.136-3.364 7.5-7.5 7.5s-7.5-3.364-7.5-7.5v-82.5h75v82.5c0 4.136-3.364 7.5-7.5 7.5s-7.5-3.364-7.5-7.5v-47.57c0-2.434-1.182-4.717-3.17-6.124z"></path><path d="m256.008 150.014c28.948 0 52.5-23.551 52.5-52.499 0 0-.002-52.461 0-57.093.002-3.066-.596-6.066-1.777-8.919-2.912-7.031-8.906-12.013-15.982-13.729-1.717-7.075-6.7-13.071-13.73-15.982-7.03-2.912-14.794-2.196-21.01 1.593-6.217-3.789-13.98-4.506-21.01-1.593-7.03 2.911-12.014 8.907-13.73 15.982-7.075 1.717-13.071 6.699-15.983 13.731-1.181 2.851-1.778 5.851-1.776 8.916.002 4.634 0 57.094 0 57.094-.002 28.948 23.55 52.499 52.498 52.499zm0-15c-16.296 0-30.19-10.451-35.35-25h70.7c-5.16 14.549-19.054 25-35.35 25zm-37.408-40c1.292-19.515 17.571-35 37.407-35s36.115 15.485 37.407 35zm-.092-54.6c-.001-1.084.214-2.152.635-3.171 1.394-3.361 4.773-5.396 8.382-5.094 2.216.201 4.386-.603 5.951-2.168 1.565-1.566 2.359-3.745 2.168-5.951-.313-3.621 1.733-6.989 5.095-8.382 3.358-1.39 7.189-.458 9.528 2.325 1.426 1.695 3.527 2.674 5.741 2.674 2.215 0 4.316-.979 5.741-2.675 2.34-2.781 6.17-3.714 9.528-2.324 3.361 1.393 5.408 4.761 5.095 8.382-.191 2.206.603 4.385 2.168 5.951 1.566 1.565 3.738 2.369 5.951 2.168 3.611-.3 6.989 1.732 8.381 5.092.422 1.021.637 2.089.636 3.174-.001 1.755-.001 10.375-.001 20.406-9.537-9.744-22.82-15.807-37.499-15.807s-27.962 6.063-37.499 15.807c0-10.031 0-18.651-.001-20.407z"></path><circle cx="256.008" cy="202.514" r="7.5"></circle><circle cx="256.008" cy="232.514" r="7.5"></circle></g></svg>